<?xml version="1.0" standalone="no"?><!DOCTYPE svg PUBLIC "-//W3C//DTD SVG 1.1//EN" "http://www.w3.org/Graphics/SVG/1.1/DTD/svg11.dtd"><svg t="1569287614051" class="icon" viewBox="0 0 1024 1024" version="1.1" xmlns="http://www.w3.org/2000/svg" p-id="2074" xmlns:xlink="http://www.w3.org/1999/xlink" width="200" height="200"><defs><style type="text/css"></style></defs><path d="M896 597.333333v298.666667a42.666667 42.666667 0 0 1-42.666667 42.666667H170.666667a42.666667 42.666667 0 0 1-42.666667-42.666667v-298.666667a85.333333 85.333333 0 1 0 0-170.666666V128a42.666667 42.666667 0 0 1 42.666667-42.666667h682.666666a42.666667 42.666667 0 0 1 42.666667 42.666667v298.666667a85.333333 85.333333 0 1 0 0 170.666666z m-85.333333 62.506667A170.581333 170.581333 0 0 1 725.333333 512c0-63.146667 34.304-118.314667 85.333334-147.84V170.666667H213.333333v193.493333C264.362667 393.685333 298.666667 448.853333 298.666667 512c0 63.146667-34.304 118.314667-85.333334 147.84V853.333333h597.333334v-193.493333zM384 256h256v85.333333H384V256z m0 426.666667h256v85.333333H384v-85.333333z" p-id="2075"></path></svg>