<?xml version="1.0" standalone="no"?><!DOCTYPE svg PUBLIC "-//W3C//DTD SVG 1.1//EN" "http://www.w3.org/Graphics/SVG/1.1/DTD/svg11.dtd"><svg t="1569287608822" class="icon" viewBox="0 0 1024 1024" version="1.1" xmlns="http://www.w3.org/2000/svg" p-id="1956" xmlns:xlink="http://www.w3.org/1999/xlink" width="200" height="200"><defs><style type="text/css"></style></defs><path d="M229.248 192.426667A425.045333 425.045333 0 0 1 512 85.333333c235.648 0 426.666667 191.018667 426.666667 426.666667a424.704 424.704 0 0 1-76.501334 243.84L746.666667 512H853.333333A341.333333 341.333333 0 0 0 267.690667 273.621333l-38.4-81.152z m565.504 639.146666A425.045333 425.045333 0 0 1 512 938.666667C276.352 938.666667 85.333333 747.648 85.333333 512c0-90.666667 28.288-174.72 76.501334-243.84L277.333333 512H170.666667a341.333333 341.333333 0 0 0 585.642666 238.378667l38.4 81.152z m-222.421333-198.912L451.669333 512l-120.704 120.661333-60.330666-60.330666 181.034666-180.992L572.330667 512l120.704-120.661333 60.330666 60.330666-181.034666 180.992z" p-id="1957"></path></svg>