<?xml version="1.0" standalone="no"?><!DOCTYPE svg PUBLIC "-//W3C//DTD SVG 1.1//EN" "http://www.w3.org/Graphics/SVG/1.1/DTD/svg11.dtd"><svg t="1569287194549" class="icon" viewBox="0 0 1024 1024" version="1.1" xmlns="http://www.w3.org/2000/svg" p-id="1412" xmlns:xlink="http://www.w3.org/1999/xlink" width="200" height="200"><defs><style type="text/css"></style></defs><path d="M495.68256 30.53568a28.29824 28.29824 0 0 1 31.94368 0l406.75328 280.29952a61.5936 61.5936 0 0 1 26.8288 50.8416l2.57536 609.11104a28.29824 28.29824 0 0 1-28.29824 28.29824H89.73824A28.29824 28.29824 0 0 1 61.44 970.78784l1.46944-609.11104a61.5936 61.5936 0 0 1 26.8288-50.8416L495.68256 30.53568zM512 88.18176L120.2176 357.5552a4.992 4.992 0 0 0-2.18112 4.1216v580.8128h792.3712V361.6768a4.992 4.992 0 0 0-2.17088-4.1216L512 88.18176zM332.12416 811.008a29.1328 29.1328 0 1 1 0-58.2656h366.22336a29.1328 29.1328 0 1 1 0 58.2656H332.12416z" p-id="1413"></path></svg>