<?xml version="1.0" standalone="no"?><!DOCTYPE svg PUBLIC "-//W3C//DTD SVG 1.1//EN" "http://www.w3.org/Graphics/SVG/1.1/DTD/svg11.dtd"><svg t="1569287051962" class="icon" viewBox="0 0 1024 1024" version="1.1" xmlns="http://www.w3.org/2000/svg" p-id="1054" xmlns:xlink="http://www.w3.org/1999/xlink" width="200" height="200"><defs><style type="text/css"></style></defs><path d="M512 1013.76c-277.11488 0-501.76-224.64512-501.76-501.76S234.88512 10.24 512 10.24s501.76 224.64512 501.76 501.76-224.64512 501.76-501.76 501.76z m124.33408-236.17536a46.62272 46.62272 0 0 0 21.83168 5.49376c9.6768 0 19.3536-3.01056 27.45344-9.02144 14.6432-10.58816 21.7088-28.1088 18.69824-45.89056l-23.79776-138.1888 100.40832-97.92512c12.94336-12.54912 17.52064-30.98624 11.89888-48.11264-5.49376-17.2544-20.13184-29.4144-37.9136-32.03072L616.192 391.7824l-62.10048-125.7728A46.70976 46.70976 0 0 0 512 239.85664c-18.04288 0-34.1248 9.93792-42.09664 26.14784L407.79776 391.7824l-138.71104 20.13184c-17.78176 2.4832-32.29184 14.77632-37.9136 31.8976-5.62176 17.13152-1.04448 35.56352 11.89888 48.11776l100.4032 97.92-23.65952 138.32192a46.8736 46.8736 0 0 0 18.69312 45.89056c14.5152 10.58816 33.46944 11.89888 49.41824 3.5328l124.20608-65.24416 124.20096 65.23904z" p-id="1055"></path></svg>