<?xml version="1.0" standalone="no"?><!DOCTYPE svg PUBLIC "-//W3C//DTD SVG 1.1//EN" "http://www.w3.org/Graphics/SVG/1.1/DTD/svg11.dtd"><svg t="1569287476379" class="icon" viewBox="0 0 1024 1024" version="1.1" xmlns="http://www.w3.org/2000/svg" p-id="1838" xmlns:xlink="http://www.w3.org/1999/xlink" width="200" height="200"><defs><style type="text/css"></style></defs><path d="M128 298.666667l360.32-240.213334a42.666667 42.666667 0 0 1 47.36 0L896 298.666667v597.333333a42.666667 42.666667 0 0 1-42.666667 42.666667H170.666667a42.666667 42.666667 0 0 1-42.666667-42.666667V298.666667z m384 170.666666a85.333333 85.333333 0 1 0 0-170.666666 85.333333 85.333333 0 0 0 0 170.666666z m-170.666667 213.333334v85.333333h341.333334v-85.333333H341.333333z m0-128v85.333333h341.333334v-85.333333H341.333333z" p-id="1839"></path></svg>