<?xml version="1.0" standalone="no"?><!DOCTYPE svg PUBLIC "-//W3C//DTD SVG 1.1//EN" "http://www.w3.org/Graphics/SVG/1.1/DTD/svg11.dtd"><svg t="1569286869312" class="icon" viewBox="0 0 1024 1024" version="1.1" xmlns="http://www.w3.org/2000/svg" p-id="934" xmlns:xlink="http://www.w3.org/1999/xlink" width="200" height="200"><defs><style type="text/css"></style></defs><path d="M956.3136 133.12c59.2896 0 42.15808 63.91296 42.15808 141.98272v47.37024H27.96544V275.0976C27.96544 197.03296 10.8288 133.12 70.12352 133.12H956.3136zM27.96544 757.92384V385.62816h970.50624v372.29568c0 72.94464 17.13664 132.60288-42.15808 132.60288H70.12352c-59.2896 0-42.15808-59.65824-42.15808-132.608z m591.19104-26.56768c8.09472 0 14.70976-10.1888 14.76608-19.9168v-1.9456c0-9.79456-6.5536-18.90816-14.65344-18.90816h-80.52224v-32.41984h60.67712c8.15616 0 14.71488-8.83712 14.71488-18.62656v-1.52064c0-9.79456-6.55872-18.8416-14.71488-18.8416H541.6448l67.95264-81.5104c2.90816-3.4816 4.49024-7.9872 4.44928-12.6464-0.05632-4.74624-1.59744-10.21952-4.44928-13.50656-2.79552-3.34336-9.71264-5.1712-13.70112-5.1712-4.04992 0.03584-7.88992 1.92-10.5472 5.1712L519.92576 589.312 456.3712 511.5136c-2.79552-3.34336-8.57088-5.41184-12.56448-5.41184-4.04992 0.02048-10.32192 3.91168-12.97408 7.17824-2.85184 3.34336-3.55328 11.04896-3.55328 15.85152-0.0256 4.63872 3.08224 8.5504 5.97504 12.02176l63.30368 78.0288H440.21248c-8.0384 0-14.65344 9.04192-14.65344 18.77504v1.58208c0 9.78944 6.61504 18.62656 14.65344 18.62656h60.4672v32.41984H420.48512c-8.09984 0-14.65856 9.17504-14.65856 18.90816v1.9456c0 9.79456 6.55872 19.9168 14.65856 19.9168h80.19456v61.2352c0 9.728 10.41408 17.6384 18.51392 17.6384h1.36704c8.09984 0 18.18624-7.90528 18.18624-17.6384v-61.2352h80.4096z" p-id="935"></path></svg>