<?xml version="1.0" standalone="no"?><!DOCTYPE svg PUBLIC "-//W3C//DTD SVG 1.1//EN" "http://www.w3.org/Graphics/SVG/1.1/DTD/svg11.dtd"><svg t="1565838665734" class="icon" viewBox="0 0 1024 1024" version="1.1" xmlns="http://www.w3.org/2000/svg" p-id="6397" xmlns:xlink="http://www.w3.org/1999/xlink" width="200" height="200"><defs><style type="text/css"></style></defs><path d="M511.999456 1023.998897c-281.599674 0-511.999353-230.399679-511.999353-511.999353S230.399783-8.0e-06 511.999456-8.0e-06s511.999353 230.399679 511.999353 511.999353S793.59913 1023.998897 511.999456 1023.998897L511.999456 1023.998897zM517.119356 56.319887c-253.155277 0-455.679458 202.524181-455.679458 455.679458s202.524181 455.679458 455.679458 455.679458 455.679458-202.524181 455.679458-455.679458S770.274633 56.319887 517.119356 56.319887L517.119356 56.319887zM806.399079 479.999472c0 0-422.399511-236.799653-428.799485-236.799653-38.400046-12.799949-51.199995 19.199923-51.199995 44.800021l0 0c0 0 0 467.199532 6.399974 467.199532 12.799949 32.000072 44.800021 32.000072 70.399918 19.199923l0 0c0 0 390.399439-223.999704 396.799613-230.399679C819.199228 531.199468 838.399151 505.59937 806.399079 479.999472L806.399079 479.999472z" p-id="6398" fill="#409EFF"></path></svg>