<?xml version="1.0" standalone="no"?><!DOCTYPE svg PUBLIC "-//W3C//DTD SVG 1.1//EN" "http://www.w3.org/Graphics/SVG/1.1/DTD/svg11.dtd"><svg t="1565837284645" class="icon" viewBox="0 0 1024 1024" version="1.1" xmlns="http://www.w3.org/2000/svg" p-id="3669" xmlns:xlink="http://www.w3.org/1999/xlink" width="200" height="200"><defs><style type="text/css"></style></defs><path d="M509.862321 1019.681248c-280.41228 0-509.840728-229.428248-509.840728-509.840728S229.449841-8.0e-06 509.862321-8.0e-06s509.840528 229.428248 509.840528 509.840728S790.274602 1019.681248 509.862321 1019.681248L509.862321 1019.681248zM514.960665 56.082568c-252.087884 0-453.758152 201.670268-453.758152 453.758152S262.87278 963.598872 514.960665 963.598872 968.718817 761.928405 968.718817 509.84072 767.048549 56.082568 514.960665 56.082568L514.960665 56.082568z" p-id="3670"></path><path d="M701.209828 705.281051 318.517869 705.281051c-2.260483 0-4.093225-1.832741-4.093225-4.093225L314.424644 318.495868c0-2.260483 1.832741-4.093225 4.093225-4.093225l382.691959 0c2.260483 0 4.093225 1.832741 4.093225 4.093225l0 382.691959C705.303053 703.44831 703.470311 705.281051 701.209828 705.281051z" p-id="3671"></path></svg>