<?xml version="1.0" standalone="no"?><!DOCTYPE svg PUBLIC "-//W3C//DTD SVG 1.1//EN" "http://www.w3.org/Graphics/SVG/1.1/DTD/svg11.dtd"><svg t="1565837457276" class="icon" viewBox="0 0 1024 1024" version="1.1" xmlns="http://www.w3.org/2000/svg" p-id="4320" xmlns:xlink="http://www.w3.org/1999/xlink" width="200" height="200"><defs><style type="text/css"></style></defs><path d="M130.909091 328.727273h610.909091V267.636364H130.909091v61.090909z m0-122.181818h610.909091v-52.363637a69.818182 69.818182 0 0 0-69.818182-69.818182H200.727273a69.818182 69.818182 0 0 0-69.818182 69.818182v52.363637z m0 672a61.090909 61.090909 0 0 0 61.090909 61.090909h265.378909c19.246545 0 41.658182 61.090909 66.397091 61.090909H139.636364a69.818182 69.818182 0 0 1-69.818182-69.818182V93.090909a69.818182 69.818182 0 0 1 69.818182-69.818182h593.454545a69.818182 69.818182 0 0 1 69.818182 69.818182v314.88c0-5.632-61.090909-9.611636-61.090909-11.496727v-6.656H130.909091v427.636363h262.516364c6.050909 0 14.103273 61.090909 24.064 61.09091H130.909091zM442.181818 730.181818c0-141.149091 114.850909-256 256-256s256 114.850909 256 256-114.850909 256-256 256-256-114.850909-256-256z m56.878546 0c0 109.800727 89.320727 199.121455 199.121454 199.121455 109.800727 0 199.121455-89.320727 199.121455-199.121455 0-109.800727-89.320727-199.098182-199.121455-199.098182-109.800727 0-199.121455 89.297455-199.121454 199.098182z m170.682181 142.219637v-56.878546h56.878546v56.878546h-56.878546z m0-113.780364v-170.658909h56.878546v170.658909h-56.878546z" fill="#E6A23C" p-id="4321"></path></svg>